<svg xmlns="http://www.w3.org/2000/svg" viewBox="0 0 1024 1024" role="img" aria-label="Original ranger king portrait"><defs><radialGradient id="bg" cx="50%" cy="30%" r="64%"><stop stop-color="#6f8a80"/><stop offset="1" stop-color="#111717"/></radialGradient></defs><rect width="1024" height="1024" fill="url(#bg)"/><path d="M290 930c24-270 98-398 222-398s198 128 222 398Z" fill="#24312f"/><circle cx="512" cy="356" r="154" fill="#b77a56"/><path d="M338 296c38-134 128-202 270-204 80 52 114 138 102 258-106-74-230-82-372-24Z" fill="#2f211c"/><path d="M330 504c38 76 98 116 182 120 82-2 142-42 182-120-20 144-82 226-182 246-102-18-162-100-182-246Z" fill="#2f211c"/><circle cx="456" cy="352" r="15" fill="#101817"/><circle cx="568" cy="352" r="15" fill="#101817"/><path d="M448 430c42 26 86 26 130 0" stroke="#5a2d24" stroke-width="14" fill="none" stroke-linecap="round"/><path d="M706 606 816 332" stroke="#d6c482" stroke-width="18" stroke-linecap="round"/></svg>
