<svg xmlns="http://www.w3.org/2000/svg" viewBox="0 0 1024 1024" role="img" aria-label="Original ranger king portrait"><defs><radialGradient id="bg" cx="50%" cy="31%" r="65%"><stop stop-color="#6f8a80"/><stop offset="1" stop-color="#111717"/></radialGradient></defs><rect width="1024" height="1024" fill="url(#bg)"/><path d="M260 932c28-278 112-410 252-410s224 132 252 410Z" fill="#22302d"/><path d="M330 536c48 118 108 186 182 204 74-18 134-86 182-204-82 42-222 42-364 0Z" fill="#2c201b"/><circle cx="512" cy="350" r="144" fill="#b77a56"/><path d="M328 308c46-144 150-214 298-208 84 60 112 150 86 270-104-82-232-94-384-36Z" fill="#2d211c"/><path d="M350 410c34 36 64 52 94 48m136 0c34 4 66-12 96-48" stroke="#1b1714" stroke-width="16" fill="none" stroke-linecap="round"/><circle cx="456" cy="354" r="14" fill="#101817"/><circle cx="568" cy="354" r="14" fill="#101817"/><path d="M444 432c44 26 92 26 136 0" stroke="#5a2d24" stroke-width="14" fill="none" stroke-linecap="round"/><path d="M690 628 826 258" stroke="#d6c482" stroke-width="20" stroke-linecap="round"/><path d="M790 266 858 334" stroke="#d6c482" stroke-width="16" stroke-linecap="round"/><path d="M276 748c94-52 178-78 252-78s148 26 220 78" stroke="#4d5d56" stroke-width="28" fill="none" stroke-linecap="round"/></svg>
