<svg xmlns="http://www.w3.org/2000/svg" viewBox="0 0 1024 1024" role="img" aria-label="Original human captain portrait"><defs><radialGradient id="bg" cx="50%" cy="34%" r="62%"><stop stop-color="#c9d1d0"/><stop offset="1" stop-color="#253039"/></radialGradient></defs><rect width="1024" height="1024" fill="url(#bg)"/><path d="M270 930c34-250 116-376 242-376s208 126 242 376Z" fill="#4b555c"/><circle cx="512" cy="360" r="150" fill="#c58b62"/><path d="M334 316c42-128 134-190 276-186 78 44 112 120 104 228-118-68-244-76-380-24Z" fill="#5a3728"/><circle cx="454" cy="364" r="15" fill="#172026"/><circle cx="570" cy="364" r="15" fill="#172026"/><path d="M446 444c44 24 88 24 132 0" stroke="#744331" stroke-width="14" fill="none" stroke-linecap="round"/><path d="M328 680h368" stroke="#c8c7bb" stroke-width="34"/><circle cx="512" cy="690" r="44" fill="#d7b65f"/></svg>
