<svg xmlns="http://www.w3.org/2000/svg" viewBox="0 0 1024 1024" role="img" aria-label="Original proud human captain portrait"><defs><radialGradient id="bg" cx="50%" cy="32%" r="64%"><stop stop-color="#a7a89f"/><stop offset="1" stop-color="#1d2327"/></radialGradient></defs><rect width="1024" height="1024" fill="url(#bg)"/><path d="M254 932c46-250 132-376 258-376s212 126 258 376Z" fill="#4a4f56"/><circle cx="512" cy="354" r="142" fill="#c08a62"/><path d="M336 292c48-122 140-176 276-160 76 18 126 62 150 132-116-38-248-30-398 38Z" fill="#8a5a36"/><path d="M336 620c92-44 260-44 352 0l-48 118H384Z" fill="#d7d4c8"/><circle cx="456" cy="354" r="14" fill="#161b1f"/><circle cx="568" cy="354" r="14" fill="#161b1f"/><path d="M442 434c46 26 96 26 142 0" stroke="#6e3e2c" stroke-width="13" fill="none" stroke-linecap="round"/><path d="M720 300c34 106 20 206-42 300" stroke="#d7d4c8" stroke-width="20" fill="none" stroke-linecap="round"/><path d="M684 684c82 12 132 50 150 114" stroke="#d7d4c8" stroke-width="18" fill="none" stroke-linecap="round"/><circle cx="836" cy="812" r="42" fill="none" stroke="#d7d4c8" stroke-width="16"/></svg>
