<svg xmlns="http://www.w3.org/2000/svg" viewBox="0 0 1024 1024" role="img" aria-label="Original shieldmaiden portrait"><defs><radialGradient id="bg" cx="50%" cy="34%" r="62%"><stop stop-color="#d7d1bd"/><stop offset="1" stop-color="#253233"/></radialGradient></defs><rect width="1024" height="1024" fill="url(#bg)"/><path d="M266 930c36-246 118-370 246-370s210 124 246 370Z" fill="#7c8b86"/><circle cx="512" cy="356" r="148" fill="#d3a077"/><path d="M322 300c68-126 180-172 336-138 60 74 76 148 46 222-116-72-244-82-384-28Z" fill="#d9c06f"/><circle cx="454" cy="362" r="14" fill="#172024"/><circle cx="570" cy="362" r="14" fill="#172024"/><path d="M448 434c42 26 86 26 128 0" stroke="#81523c" stroke-width="13" fill="none" stroke-linecap="round"/><path d="M334 656h356" stroke="#d7d7cc" stroke-width="34"/><path d="M676 604c70 36 112 96 126 180-92-16-154-56-186-120Z" fill="#cfc7a5"/></svg>
