<svg xmlns="http://www.w3.org/2000/svg" viewBox="0 0 1024 1024" role="img" aria-label="Original shieldmaiden portrait"><defs><radialGradient id="bg" cx="50%" cy="32%" r="64%"><stop stop-color="#e5d9a8"/><stop offset="1" stop-color="#2e352f"/></radialGradient></defs><rect width="1024" height="1024" fill="url(#bg)"/><path d="M280 932c38-246 116-370 232-370s194 124 232 370Z" fill="#b9b8aa"/><circle cx="512" cy="352" r="136" fill="#d2a072"/><path d="M340 278c52-112 142-162 270-148 76 12 126 50 150 112-124-26-254-12-390 42Z" fill="#d8c783"/><path d="M384 506c82 50 174 50 256 0l-44 220H428Z" fill="#d8d6cf"/><circle cx="456" cy="354" r="14" fill="#1c211f"/><circle cx="568" cy="354" r="14" fill="#1c211f"/><path d="M442 430c46 26 96 26 142 0" stroke="#8b5b45" stroke-width="13" fill="none" stroke-linecap="round"/><path d="M698 536c84 34 126 94 126 180-44 50-86 82-126 96-40-14-82-46-126-96 0-86 42-146 126-180Z" fill="#d8d6cf" stroke="#e5d9a8" stroke-width="16"/><path d="M698 578v176m-72-88h144" stroke="#879080" stroke-width="12" stroke-linecap="round"/></svg>
