<svg xmlns="http://www.w3.org/2000/svg" viewBox="0 0 1024 1024" role="img" aria-label="Original forest ranger captain portrait"><defs><radialGradient id="bg" cx="50%" cy="32%" r="64%"><stop stop-color="#9fbf9a"/><stop offset="1" stop-color="#18251d"/></radialGradient></defs><rect width="1024" height="1024" fill="url(#bg)"/><path d="M270 932c42-250 122-376 242-376s200 126 242 376Z" fill="#365340"/><path d="M330 292c54-116 148-166 282-148 78 18 128 60 150 126-128-38-260-28-396 30Z" fill="#3a2d22"/><circle cx="512" cy="356" r="138" fill="#bd835d"/><path d="M278 330c80-92 158-138 234-138s154 46 234 138c-42 16-80 34-112 54-78-46-166-46-244 0-32-20-70-38-112-54Z" fill="#2d4938"/><circle cx="456" cy="356" r="14" fill="#111916"/><circle cx="568" cy="356" r="14" fill="#111916"/><path d="M442 434c46 24 96 24 142 0" stroke="#6a3a2c" stroke-width="13" fill="none" stroke-linecap="round"/><path d="M734 250c-74 150-74 318 0 504" stroke="#b9caa0" stroke-width="16" fill="none" stroke-linecap="round"/><path d="M690 500h110" stroke="#b9caa0" stroke-width="12" stroke-linecap="round"/><path d="M320 708c112 42 272 42 384 0" stroke="#b9caa0" stroke-width="18" stroke-linecap="round"/></svg>
