<svg xmlns="http://www.w3.org/2000/svg" viewBox="0 0 1024 1024" role="img" aria-label="Original forest ranger captain portrait"><defs><radialGradient id="bg" cx="50%" cy="34%" r="62%"><stop stop-color="#8ab08a"/><stop offset="1" stop-color="#17231e"/></radialGradient></defs><rect width="1024" height="1024" fill="url(#bg)"/><path d="M274 928c34-246 114-370 238-370s204 124 238 370Z" fill="#2f4e3d"/><circle cx="512" cy="364" r="148" fill="#c08a62"/><path d="M306 270c92-100 220-138 384-114 48 82 48 154 0 216-112-66-236-76-372-30Z" fill="#2a3f33"/><circle cx="454" cy="366" r="14" fill="#15201b"/><circle cx="570" cy="366" r="14" fill="#15201b"/><path d="M446 438c44 26 88 26 132 0" stroke="#71402d" stroke-width="13" fill="none" stroke-linecap="round"/><path d="M322 646c126 64 254 64 382 0" stroke="#b78c4c" stroke-width="22" fill="none"/><path d="M742 252c-112 226-108 410 12 552" stroke="#d0b06a" stroke-width="14" fill="none"/></svg>
