<svg xmlns="http://www.w3.org/2000/svg" viewBox="0 0 1024 1024" role="img" aria-label="Original halfling ringbearer portrait"><defs><radialGradient id="bg" cx="50%" cy="35%" r="62%"><stop stop-color="#d5b76d"/><stop offset="1" stop-color="#273524"/></radialGradient></defs><rect width="1024" height="1024" fill="url(#bg)"/><path d="M278 930c30-244 108-368 234-368s204 124 234 368Z" fill="#40533b"/><circle cx="512" cy="366" r="142" fill="#d7a56f"/><path d="M330 324c40-126 132-190 278-172 74 10 126 48 156 114-106-36-224-18-354 52Z" fill="#4a2f20"/><path d="M318 600c58-50 122-74 194-74s136 24 194 74c-34 70-98 112-194 126-96-14-160-56-194-126Z" fill="#31462f"/><circle cx="452" cy="370" r="16" fill="#1c2420"/><circle cx="572" cy="370" r="16" fill="#1c2420"/><path d="M450 456c38 24 82 24 124 0" stroke="#6b3b2a" stroke-width="14" fill="none" stroke-linecap="round"/><circle cx="676" cy="612" r="38" fill="none" stroke="#e0c469" stroke-width="17"/><path d="M512 510v148" stroke="#e0c469" stroke-width="10" stroke-linecap="round"/><path d="M320 732c98 28 286 28 384 0" stroke="#7f6d3d" stroke-width="20" stroke-linecap="round"/></svg>
