<svg xmlns="http://www.w3.org/2000/svg" viewBox="0 0 1024 1024" role="img" aria-label="Original white wizard portrait"><defs><radialGradient id="bg" cx="48%" cy="30%" r="66%"><stop stop-color="#f7f3d1"/><stop offset="1" stop-color="#26313a"/></radialGradient><filter id="glow"><feGaussianBlur stdDeviation="10" result="b"/><feMerge><feMergeNode in="b"/><feMergeNode in="SourceGraphic"/></feMerge></filter></defs><rect width="1024" height="1024" fill="url(#bg)"/><path d="M244 928c56-264 146-398 268-398s212 134 268 398Z" fill="#e7e6dc"/><path d="M286 300 512 62l226 238Z" fill="#f0efe5"/><path d="M340 322c48-52 104-76 172-76s124 24 172 76c-38 36-96 56-172 56s-134-20-172-56Z" fill="#d8d7cd"/><circle cx="512" cy="354" r="138" fill="#c99670"/><path d="M360 462c74 62 176 62 304 0l-86 350H446Z" fill="#f8f7ef"/><path d="M406 518c62 36 150 36 212 0" stroke="#dad8cc" stroke-width="58" stroke-linecap="round"/><circle cx="456" cy="354" r="14" fill="#253037"/><circle cx="568" cy="354" r="14" fill="#253037"/><path d="M430 424c54 34 110 34 164 0" stroke="#8d654e" stroke-width="13" fill="none" stroke-linecap="round"/><path d="M788 238v548" stroke="#f4df9b" stroke-width="22" stroke-linecap="round" filter="url(#glow)"/><circle cx="788" cy="216" r="50" fill="#fff1a8" opacity=".9" filter="url(#glow)"/><path d="M738 328c44 20 76 20 100 0" stroke="#fff7c8" stroke-width="10" fill="none" stroke-linecap="round"/></svg>
