<svg xmlns="http://www.w3.org/2000/svg" viewBox="0 0 1024 1024" role="img" aria-label="Original dwarf warrior portrait"><defs><radialGradient id="bg" cx="50%" cy="36%" r="62%"><stop stop-color="#e3a052"/><stop offset="1" stop-color="#2e1b16"/></radialGradient></defs><rect width="1024" height="1024" fill="url(#bg)"/><path d="M238 930c54-254 146-382 274-382s220 128 274 382Z" fill="#6d452a"/><circle cx="512" cy="360" r="152" fill="#bf805a"/><path d="M338 290c54-118 146-174 276-168 68 26 104 86 108 180-118-46-244-48-384-12Z" fill="#8a4726"/><path d="M352 450c82 42 188 42 318 0l-54 322H414Z" fill="#8a4726"/><circle cx="452" cy="354" r="15" fill="#1c1714"/><circle cx="572" cy="354" r="15" fill="#1c1714"/><path d="M422 610h180" stroke="#d9b46b" stroke-width="26" stroke-linecap="round"/><path d="M742 210 848 318 772 394" stroke="#d6c07a" stroke-width="24" fill="none" stroke-linecap="round"/></svg>
