<svg xmlns="http://www.w3.org/2000/svg" viewBox="0 0 1024 1024" role="img" aria-label="Original dwarf warrior portrait"><defs><radialGradient id="bg" cx="50%" cy="34%" r="66%"><stop stop-color="#e1a85f"/><stop offset="1" stop-color="#302018"/></radialGradient></defs><rect width="1024" height="1024" fill="url(#bg)"/><path d="M248 932c54-236 142-354 264-354s210 118 264 354Z" fill="#7a4a30"/><circle cx="512" cy="350" r="130" fill="#b97752"/><path d="M340 280c44-110 130-162 258-156 70 12 118 48 144 108-118-34-238-18-360 48Z" fill="#6d341f"/><path d="M354 430c88 94 228 94 316 0l-52 360H406Z" fill="#7c3f25"/><path d="M414 520c66 42 130 42 196 0" stroke="#a95f35" stroke-width="42" stroke-linecap="round"/><circle cx="456" cy="350" r="14" fill="#17110e"/><circle cx="568" cy="350" r="14" fill="#17110e"/><path d="M438 424c48 22 100 22 148 0" stroke="#5a2d24" stroke-width="12" fill="none" stroke-linecap="round"/><path d="M760 330 650 780" stroke="#d09a52" stroke-width="22" stroke-linecap="round"/><path d="M706 334h130l-34-74Z" fill="#cfd0c8"/><path d="M306 646h412" stroke="#d09a52" stroke-width="22" stroke-linecap="round"/></svg>
