<svg xmlns="http://www.w3.org/2000/svg" viewBox="0 0 1024 1024" role="img" aria-label="Original corrupted cave stalker portrait"><defs><radialGradient id="bg" cx="50%" cy="35%" r="62%"><stop stop-color="#91b38f"/><stop offset="1" stop-color="#111819"/></radialGradient><filter id="eye"><feGaussianBlur stdDeviation="7" result="b"/><feMerge><feMergeNode in="b"/><feMergeNode in="SourceGraphic"/></feMerge></filter></defs><rect width="1024" height="1024" fill="url(#bg)"/><path d="M300 936c26-214 92-318 212-318s186 104 212 318Z" fill="#39453d"/><ellipse cx="512" cy="368" rx="132" ry="154" fill="#9a8b72"/><path d="M364 268c50-86 148-118 256-84 52 34 82 84 90 150-112-58-226-62-346-14Z" fill="#3f463f"/><ellipse cx="438" cy="366" rx="42" ry="54" fill="#d7f0c8" filter="url(#eye)"/><ellipse cx="586" cy="366" rx="42" ry="54" fill="#d7f0c8" filter="url(#eye)"/><circle cx="438" cy="370" r="14" fill="#111819"/><circle cx="586" cy="370" r="14" fill="#111819"/><path d="M438 492c50 30 100 30 150 0" stroke="#514139" stroke-width="14" fill="none" stroke-linecap="round"/><path d="M330 650c76-34 140-48 182-42 42-6 106 8 182 42" stroke="#6d7160" stroke-width="22" fill="none" stroke-linecap="round"/><path d="M274 748c70-30 122-18 156 36m318-36c-70-30-122-18-156 36" stroke="#8e826c" stroke-width="18" fill="none" stroke-linecap="round"/></svg>
