<svg xmlns="http://www.w3.org/2000/svg" viewBox="0 0 1024 1024" role="img" aria-label="Original corrupted cave stalker portrait"><defs><radialGradient id="bg" cx="50%" cy="36%" r="62%"><stop stop-color="#829c88"/><stop offset="1" stop-color="#0d1110"/></radialGradient></defs><rect width="1024" height="1024" fill="url(#bg)"/><path d="M282 930c42-260 118-390 230-390s188 130 230 390Z" fill="#5f6b56"/><ellipse cx="512" cy="360" rx="164" ry="142" fill="#9d9b7d"/><path d="M352 270c76-74 184-90 324-48 34 66 26 122-24 168-100-52-202-58-306-18Z" fill="#3d352d"/><circle cx="446" cy="360" r="42" fill="#dbe2b0"/><circle cx="578" cy="360" r="42" fill="#dbe2b0"/><circle cx="446" cy="360" r="15" fill="#101310"/><circle cx="578" cy="360" r="15" fill="#101310"/><path d="M440 482c52 30 100 30 144 0" stroke="#514137" stroke-width="12" fill="none" stroke-linecap="round"/><path d="M360 630c92 54 196 54 312 0" stroke="#d0c27a" stroke-width="18" fill="none" opacity=".6"/></svg>
