<svg xmlns="http://www.w3.org/2000/svg" viewBox="0 0 1024 1024" role="img" aria-label="Original elven archer portrait"><defs><radialGradient id="bg" cx="50%" cy="30%" r="66%"><stop stop-color="#b7d6c7"/><stop offset="1" stop-color="#173532"/></radialGradient></defs><rect width="1024" height="1024" fill="url(#bg)"/><path d="M286 928c36-248 112-374 226-374s190 126 226 374Z" fill="#2d6f67"/><circle cx="512" cy="350" r="136" fill="#d4a574"/><path d="M340 280c46-108 132-160 258-154 74 4 128 48 162 132-116-36-238-24-366 36Z" fill="#e8d889"/><path d="M330 344 238 304l92 110m364-70 92-40-92 110" fill="#d4a574"/><path d="M390 520c82 38 162 38 244 0l-44 204H434Z" fill="#e8d889"/><circle cx="456" cy="348" r="13" fill="#15302d"/><circle cx="568" cy="348" r="13" fill="#15302d"/><path d="M446 426c42 24 88 24 132 0" stroke="#81604a" stroke-width="12" fill="none" stroke-linecap="round"/><path d="M752 238c-96 172-96 362 0 570" stroke="#d9e5c8" stroke-width="18" fill="none" stroke-linecap="round"/><path d="M704 366h146M704 486h146M704 606h146" stroke="#d9e5c8" stroke-width="12" stroke-linecap="round"/><path d="M720 486 592 420" stroke="#cba85f" stroke-width="12" stroke-linecap="round"/></svg>
