<svg xmlns="http://www.w3.org/2000/svg" viewBox="0 0 1024 1024" role="img" aria-label="Original elven archer portrait"><defs><radialGradient id="bg" cx="50%" cy="36%" r="62%"><stop stop-color="#a8d8ce"/><stop offset="1" stop-color="#183334"/></radialGradient></defs><rect width="1024" height="1024" fill="url(#bg)"/><path d="M276 920c32-248 112-372 236-372s204 124 236 372Z" fill="#2f5b52"/><circle cx="512" cy="352" r="146" fill="#d4a477"/><path d="M328 304c52-132 162-190 330-174 52 70 68 146 48 228-114-78-242-84-384-18Z" fill="#e4d89d"/><circle cx="454" cy="358" r="14" fill="#102020"/><circle cx="570" cy="358" r="14" fill="#102020"/><path d="M450 430c42 26 84 26 126 0" stroke="#83573d" stroke-width="12" fill="none" stroke-linecap="round"/><path d="M742 236c-108 208-108 398 0 570" stroke="#d8c986" stroke-width="18" fill="none"/><path d="M706 518h156" stroke="#d8c986" stroke-width="12"/></svg>
