<svg xmlns="http://www.w3.org/2000/svg" viewBox="0 0 1024 1024" role="img" aria-label="Original loyal halfling guardian portrait"><defs><radialGradient id="bg" cx="50%" cy="35%" r="62%"><stop stop-color="#d6b06a"/><stop offset="1" stop-color="#283521"/></radialGradient></defs><rect width="1024" height="1024" fill="url(#bg)"/><path d="M270 930c38-232 118-350 242-350s204 118 242 350Z" fill="#6a6f3d"/><circle cx="512" cy="372" r="138" fill="#d09a6b"/><path d="M338 316c50-108 138-154 264-136 70 12 122 48 156 108-122-28-248-16-378 36Z" fill="#6b4224"/><circle cx="454" cy="374" r="15" fill="#1e251c"/><circle cx="570" cy="374" r="15" fill="#1e251c"/><path d="M442 456c46 32 96 32 142 0" stroke="#74422e" stroke-width="14" fill="none" stroke-linecap="round"/><path d="M266 604c-42 30-62 88-48 174 56 14 104-10 144-72Z" fill="#8a6b38"/><path d="M700 594c70 28 102 82 96 162-62 28-112 14-150-44Z" fill="#8a6b38"/><path d="M366 646h292" stroke="#d4a256" stroke-width="22" stroke-linecap="round"/><path d="M680 700c68 16 104 52 108 108" stroke="#cbb078" stroke-width="18" fill="none" stroke-linecap="round"/><circle cx="764" cy="822" r="34" fill="none" stroke="#cbb078" stroke-width="14"/></svg>
