<svg xmlns="http://www.w3.org/2000/svg" viewBox="0 0 1024 1024" role="img" aria-label="Original armored shadow lord portrait"><defs><radialGradient id="bg" cx="50%" cy="36%" r="64%"><stop stop-color="#f15a2d"/><stop offset="1" stop-color="#080506"/></radialGradient></defs><rect width="1024" height="1024" fill="url(#bg)"/><path d="M250 930c46-280 134-420 262-420s216 140 262 420Z" fill="#171315"/><path d="M330 514 512 108l182 406Z" fill="#2a2527"/><path d="M390 322c76-66 168-66 244 0 26 58 26 112 0 162-84 46-166 46-244 0-26-50-26-104 0-162Z" fill="#0e0c0d"/><ellipse cx="512" cy="408" rx="132" ry="44" fill="#ff6a2d"/><circle cx="512" cy="408" r="28" fill="#ffe06c"/><g stroke="#5c4b45" stroke-width="26" stroke-linecap="round"><path d="M356 610 258 764"/><path d="M668 610l98 154"/><path d="M394 690h236"/></g><path d="M298 236 406 320M726 236 618 320" stroke="#0f0d0e" stroke-width="34" stroke-linecap="round"/></svg>
