<svg xmlns="http://www.w3.org/2000/svg" viewBox="0 0 1024 1024" role="img" aria-label="Original armored shadow lord portrait"><defs><radialGradient id="bg" cx="50%" cy="34%" r="66%"><stop stop-color="#ef4b35"/><stop offset="1" stop-color="#130909"/></radialGradient><filter id="fire"><feGaussianBlur stdDeviation="9" result="b"/><feMerge><feMergeNode in="b"/><feMergeNode in="SourceGraphic"/></feMerge></filter></defs><rect width="1024" height="1024" fill="url(#bg)"/><path d="M254 934c50-270 136-404 258-404s208 134 258 404Z" fill="#1b1010"/><path d="M322 284 384 86l78 176 50-210 50 210 78-176 62 198c-94 64-286 64-380 0Z" fill="#1d1717"/><path d="M350 298c56-86 108-128 162-128s106 42 162 128c-24 116-78 178-162 186-84-8-138-70-162-186Z" fill="#231818"/><path d="M372 366c80-62 200-62 280 0-58 78-222 78-280 0Z" fill="#ef4b35" filter="url(#fire)"/><ellipse cx="512" cy="366" rx="62" ry="24" fill="#ffd27a" filter="url(#fire)"/><path d="M304 570c92 42 324 42 416 0" stroke="#4c2520" stroke-width="30" stroke-linecap="round"/><path d="M264 770h496" stroke="#ef4b35" stroke-width="24" stroke-linecap="round" filter="url(#fire)"/><path d="M212 456 96 370m716 86 116-86" stroke="#2b2020" stroke-width="28" stroke-linecap="round"/></svg>
