<svg xmlns="http://www.w3.org/2000/svg" viewBox="0 0 1024 1024" role="img" aria-label="Original horse lord king portrait"><defs><radialGradient id="bg" cx="50%" cy="34%" r="62%"><stop stop-color="#d4b96a"/><stop offset="1" stop-color="#2b3426"/></radialGradient></defs><rect width="1024" height="1024" fill="url(#bg)"/><path d="M260 930c40-252 124-378 252-378s212 126 252 378Z" fill="#516234"/><circle cx="512" cy="362" r="150" fill="#c18b63"/><path d="M330 292c70-112 190-142 360-90 12 54 4 106-24 156-110-58-226-62-348-14Z" fill="#caa55e"/><path d="M390 470c76 42 156 42 240 0l-44 210H438Z" fill="#d8d0b0"/><circle cx="454" cy="362" r="14" fill="#1f241b"/><circle cx="570" cy="362" r="14" fill="#1f241b"/><path d="M444 434c44 24 88 24 132 0" stroke="#75503e" stroke-width="13" fill="none" stroke-linecap="round"/><path d="M334 676h356" stroke="#d0b95d" stroke-width="34"/><path d="M512 152 566 250h-108Z" fill="#e6cc70"/></svg>
