<svg xmlns="http://www.w3.org/2000/svg" viewBox="0 0 1024 1024" role="img" aria-label="Original horse lord king portrait"><defs><radialGradient id="bg" cx="50%" cy="31%" r="66%"><stop stop-color="#d7b15b"/><stop offset="1" stop-color="#26321d"/></radialGradient></defs><rect width="1024" height="1024" fill="url(#bg)"/><path d="M250 932c54-252 142-378 262-378s208 126 262 378Z" fill="#607037"/><circle cx="512" cy="352" r="140" fill="#c49268"/><path d="M336 286c52-106 140-152 264-138 82 20 132 66 150 138-128-36-266-36-414 0Z" fill="#d6c17a"/><path d="M342 290 512 106l170 184c-96 36-244 36-340 0Z" fill="#d7b15b"/><path d="M396 508c70 54 162 54 232 0l-52 182H448Z" fill="#d9d0b8"/><circle cx="456" cy="354" r="14" fill="#20230f"/><circle cx="568" cy="354" r="14" fill="#20230f"/><path d="M438 432c50 24 100 24 150 0" stroke="#7a4e37" stroke-width="13" fill="none" stroke-linecap="round"/><path d="M324 704c116 44 260 44 376 0" stroke="#d7b15b" stroke-width="20" stroke-linecap="round"/><path d="M736 320c72 56 98 128 78 216-40-48-86-72-138-72" stroke="#d7b15b" stroke-width="18" fill="none" stroke-linecap="round"/></svg>
